<?xml version="1.0" encoding="UTF-8" standalone="no"?>
<svg
   width="1024"
   height="1024"
   viewBox="0 0 1024 1024"
   version="1.1"
   id="svg12"
   sodipodi:docname="calamus_icon.svg"
   inkscape:version="1.4.4 (dcaf3e7d9e, 2026-05-05)"
   inkscape:export-filename="calamus_icon_128x128.png"
   inkscape:export-xdpi="12"
   inkscape:export-ydpi="12"
   xmlns:inkscape="http://www.inkscape.org/namespaces/inkscape"
   xmlns:sodipodi="http://sodipodi.sourceforge.net/DTD/sodipodi-0.dtd"
   xmlns="http://www.w3.org/2000/svg"
   xmlns:svg="http://www.w3.org/2000/svg">
  <defs
     id="defs12" />
  <sodipodi:namedview
     id="namedview12"
     pagecolor="#ffffff"
     bordercolor="#666666"
     borderopacity="1.0"
     inkscape:showpageshadow="2"
     inkscape:pageopacity="0.0"
     inkscape:pagecheckerboard="0"
     inkscape:deskcolor="#d1d1d1"
     inkscape:zoom="0.78125"
     inkscape:cx="476.16"
     inkscape:cy="510.72"
     inkscape:window-width="1487"
     inkscape:window-height="991"
     inkscape:window-x="26"
     inkscape:window-y="23"
     inkscape:window-maximized="0"
     inkscape:current-layer="g12" />
  <g
     id="g12"
     transform="matrix(-1.03375,0,0,-1.03375,956.16,1121.28)">
    <g
       id="g13"
       transform="matrix(1.3647927,0,0,1.3647927,-268.91175,-111.3717)">
      <path
         fill="#073d73"
         d="m 244.468,667.309 c 47.084,-25.921 92.809,-66.368 126.12,-109.117 6.338,-9.526 10.383,-17.073 20.298,-23.568 9.723,-6.733 24.599,-8.133 35.795,-4.926 40.891,11.714 93.136,73.739 55.957,113.908 -6.66,7.196 -25.288,18.252 -34.537,26.24 -33.707,29.113 -71.236,68.998 -91.054,109.092 l -1.705,-0.333 c 6.562,-37.563 -19.011,-73.83 -48.851,-93.561 -18.008,-11.908 -38.527,-20.993 -60.521,-16.661 -0.504,-0.354 -1.004,-0.712 -1.502,-1.074 z"
         id="path2"
         style="fill:#d38d5f" />
      <path
         fill="#073d73"
         d="m 591.678,307.408 c 0.068,-0.386 0.212,-2.562 0.781,-2.595 0.453,0.25 0.954,1.71 1.188,2.178 4.833,11.318 9.885,19.767 18.766,28.456 2.903,2.841 7.78,6.723 10.22,9.548 l -0.274,0.726 c -3.366,8.792 -9.917,18.948 -14.422,27.423 -13.127,24.696 -26.184,49.497 -39.75,73.937 -1.775,3.198 -1.462,6.382 1.844,8.297 4.497,0.591 24.098,-10.356 29.476,-13.046 l 54.7,-27.674 c 4.863,-2.486 19.97,-10.72 24.405,-11.818 11.066,13.865 20.842,22.645 36.457,30.956 -18.1,9.461 -36.319,19.067 -53.21,30.551 -42.52,28.909 -82.933,63.902 -113.708,105.328 -6.554,8.822 -10.696,18.372 -16.453,27.365 -2.89,-32.657 -18.576,-56.444 -43.229,-77.599 -15.703,-13.474 -39.906,-26.164 -61.116,-26.023 56.48,-34.645 109.163,-92.583 144.312,-148.565 6.947,-11.066 15.674,-25.195 20.013,-37.445 z"
         id="path3"
         style="fill:#d38d5f" />
      <path
         fill="#2a4e78"
         d="m 591.678,307.408 c 0.068,-0.386 0.212,-2.562 0.781,-2.595 0.453,0.25 0.954,1.71 1.188,2.178 z"
         id="path4" />
      <path
         fill="#073d73"
         d="m 251.345,674.682 c 18.256,-3.009 43.275,9.38 57.254,20.141 21.089,16.471 36.492,38.757 40.187,65.478 4.213,30.46 -12.111,55.132 -43.663,58.969 -54.778,8.593 -125.939,-75.413 -87.22,-125.728 8.174,-10.622 20.297,-17.292 33.442,-18.86 z"
         id="path5"
         style="fill:#d38d5f" />
      <path
         fill="#ffffff"
         d="m 254.096,704.119 c 21.047,-1.859 43.318,16.351 55.143,32.138 12.412,16.57 21.287,48.891 -7.269,54.631 -48.12,4.066 -94.428,-76.609 -47.874,-86.769 z"
         id="path6" />
      <path
         fill="#073d73"
         d="m 788.145,207.029 c 5.71,0.101 9.532,6.361 14.399,10.823 -14.47,15.769 -32.112,32.397 -47.518,47.534 l -59.57,59.246 c -21.196,-16.317 -39.7,-18.359 -65.381,-11.258 -3.773,1.221 -8.166,3.188 -11.882,4.739 -3.066,-4.202 -10.27,-14.243 -13.578,-17.499 10.253,-5.953 23.97,-12.472 34.725,-17.919 l 48.525,-24.854 c 32.778,-16.634 67.058,-35.155 100.28,-50.812 z"
         id="path7"
         style="fill:#d38d5f" />
      <path
         fill="#073d73"
         d="m 808.08,223.484 c 2.677,2.691 7.201,6.551 8.577,10.082 0.614,1.575 -0.322,3.329 -1.095,4.874 -3.879,7.749 -7.936,15.459 -11.866,23.184 l -31.254,60.837 -34.365,67.465 c -4.862,9.544 -9.973,20.393 -15,29.631 -3.67,-1.535 -9.875,-5.39 -13.668,-7.514 -3.2,-1.414 -3.353,-1.255 -1.778,-4.363 13.451,-26.548 9.918,-53.785 -7.301,-77.799 27.644,-28.51 56.684,-55.991 84.77,-84.095 7.6,-7.605 15.029,-15.056 22.98,-22.302 z"
         id="path8"
         style="fill:#d38d5f" />
      <path
         fill="#073d73"
         d="m 421.516,500.153 c 41.551,-3.877 87.477,37.305 99.709,74.999 9.593,29.561 -0.229,60.144 -31.441,70.004 4.317,-5.987 5.629,-7.592 8.296,-14.295 14.593,-41.77 -20.248,-83.165 -55.211,-101.503 -19.607,-10.283 -40.516,-10.316 -59.049,2.205 1.512,-4.184 3.561,-8.155 6.097,-11.811 7.728,-11.014 18.423,-17.37 31.599,-19.599 z"
         id="path9"
         style="fill:#d38d5f" />
      <path
         fill="#51738e"
         d="m 244.468,667.309 c 0.498,0.362 0.998,0.72 1.502,1.074 -2.443,0.99 -4.684,1.124 -6.877,2.354 l 0.128,-1.008 c 2.065,-0.796 3.447,-1.685 5.247,-2.42 z"
         id="path10" />
      <path
         fill="#2a4e78"
         d="m 355.342,778.605 1.705,0.333 c -0.352,0.702 -1.66,3.348 -2.256,3.638 -0.439,-0.418 0.44,-3.478 0.551,-3.971 z"
         id="path11"
         style="fill:#d38d5f" />
      <path
         fill="#dce1e8"
         d="m 239.093,670.737 c -2.724,1.645 -2.566,-0.269 0.128,-1.008 z"
         id="path12" />
    </g>
  </g>
</svg>
